<mxfile host="65bd71144e">
    <diagram id="RYidk_AJ8nq5UEFwjh7m" name="Page-1">
        <mxGraphModel dx="1983" dy="1325" grid="1" gridSize="10" guides="1" tooltips="1" connect="1" arrows="1" fold="1" page="1" pageScale="1" pageWidth="1600" pageHeight="1200" math="0" shadow="1">
            <root>
                <mxCell id="0"/>
                <mxCell id="1" parent="0"/>
                <mxCell id="151" value="Battery" style="swimlane;fillColor=#F694C1;strokeColor=#AF45ED;fontColor=#095C86;shadow=1;" parent="1" vertex="1">
                    <mxGeometry x="102.25" y="41" width="187.5" height="1117" as="geometry"/>
                </mxCell>
                <mxCell id="163" style="edgeStyle=orthogonalEdgeStyle;curved=0;rounded=1;sketch=0;orthogonalLoop=1;jettySize=auto;html=1;exitX=0.5;exitY=1;exitDx=0;exitDy=0;entryX=0.5;entryY=0;entryDx=0;entryDy=0;fontColor=#095C86;strokeColor=#60E696;fillColor=#F694C1;endArrow=open;endFill=0;shadow=1;" parent="151" source="14" target="28" edge="1">
                    <mxGeometry relative="1" as="geometry"/>
                </mxCell>
                <mxCell id="14" value="Power Starter" style="rounded=1;whiteSpace=wrap;html=1;sketch=0;fontColor=#095C86;strokeColor=#AF45ED;fillColor=#F694C1;shadow=1;" parent="151" vertex="1">
                    <mxGeometry x="22.25" y="197" width="125" height="40" as="geometry"/>
                </mxCell>
                <mxCell id="28" value="" style="rhombus;whiteSpace=wrap;html=1;rounded=0;sketch=0;fontColor=#095C86;strokeColor=#AF45ED;fillColor=#F694C1;shadow=1;" parent="151" vertex="1">
                    <mxGeometry x="59.75" y="257" width="50" height="50" as="geometry"/>
                </mxCell>
                <mxCell id="32" value="&lt;font color=&quot;#ff99cc&quot; style=&quot;font-size: 14px&quot;&gt;[Short]&amp;nbsp; &amp;nbsp; &amp;nbsp; &amp;nbsp; &amp;nbsp; &amp;nbsp; &amp;nbsp; &amp;nbsp; [Juiced]&lt;/font&gt;" style="text;html=1;strokeColor=none;fillColor=none;align=center;verticalAlign=middle;whiteSpace=wrap;rounded=0;sketch=0;fontColor=#095C86;shadow=1;" parent="151" vertex="1">
                    <mxGeometry x="-16.25" y="272" width="210" height="20" as="geometry"/>
                </mxCell>
                <mxCell id="23" value="Power Fuel Pump" style="rounded=1;whiteSpace=wrap;html=1;sketch=0;fontColor=#095C86;strokeColor=#AF45ED;fillColor=#F694C1;shadow=1;" parent="151" vertex="1">
                    <mxGeometry x="22.25" y="377" width="125" height="40" as="geometry"/>
                </mxCell>
                <mxCell id="25" value="Power Injector Drive Module (IDM)" style="rounded=1;whiteSpace=wrap;html=1;sketch=0;fontColor=#095C86;strokeColor=#AF45ED;fillColor=#F694C1;shadow=1;" parent="151" vertex="1">
                    <mxGeometry x="22.25" y="507" width="125" height="40" as="geometry"/>
                </mxCell>
                <mxCell id="152" value="ECU" style="swimlane;fillColor=#F694C1;strokeColor=#AF45ED;fontColor=#095C86;startSize=23;shadow=1;" parent="1" vertex="1">
                    <mxGeometry x="559.75" y="41" width="200" height="1117" as="geometry"/>
                </mxCell>
                <mxCell id="161" style="edgeStyle=orthogonalEdgeStyle;curved=0;rounded=1;sketch=0;orthogonalLoop=1;jettySize=auto;html=1;exitX=0.5;exitY=1;exitDx=0;exitDy=0;entryX=0.5;entryY=0;entryDx=0;entryDy=0;fontColor=#095C86;strokeColor=#60E696;fillColor=#F694C1;endArrow=open;endFill=0;shadow=1;" parent="152" source="16" target="20" edge="1">
                    <mxGeometry relative="1" as="geometry"/>
                </mxCell>
                <mxCell id="16" value="ECU To Start Car" style="rounded=1;whiteSpace=wrap;html=1;sketch=0;fontColor=#095C86;strokeColor=#AF45ED;fillColor=#F694C1;shadow=1;" parent="152" vertex="1">
                    <mxGeometry x="57.5" y="47" width="125" height="40" as="geometry"/>
                </mxCell>
                <mxCell id="20" value="" style="rounded=0;whiteSpace=wrap;html=1;sketch=0;fontColor=#095C86;strokeColor=#AF45ED;fillColor=#F694C1;shadow=1;" parent="152" vertex="1">
                    <mxGeometry x="29.5" y="117" width="127" height="20" as="geometry"/>
                </mxCell>
                <mxCell id="10" value="" style="rounded=0;whiteSpace=wrap;html=1;sketch=0;fontColor=#095C86;strokeColor=#AF45ED;fillColor=#F694C1;shadow=1;" parent="152" vertex="1">
                    <mxGeometry x="56.5" y="767" width="127" height="20" as="geometry"/>
                </mxCell>
                <mxCell id="77" value="Shut Down Vehicle" style="rounded=1;whiteSpace=wrap;html=1;sketch=0;fontColor=#095C86;strokeColor=#AF45ED;fillColor=#F694C1;shadow=1;" parent="152" vertex="1">
                    <mxGeometry x="58.5" y="1037" width="125" height="40" as="geometry"/>
                </mxCell>
                <mxCell id="153" value="Starter" style="swimlane;fillColor=#F694C1;strokeColor=#AF45ED;fontColor=#095C86;startSize=23;shadow=1;" parent="1" vertex="1">
                    <mxGeometry x="759.75" y="41" width="230" height="1117" as="geometry"/>
                </mxCell>
                <mxCell id="31" value="" style="rhombus;whiteSpace=wrap;html=1;rounded=0;sketch=0;fontColor=#095C86;strokeColor=#AF45ED;fillColor=#F694C1;shadow=1;" parent="153" vertex="1">
                    <mxGeometry x="66.5" y="112" width="50" height="50" as="geometry"/>
                </mxCell>
                <mxCell id="35" value="&lt;font color=&quot;#ff99cc&quot; style=&quot;font-size: 14px&quot;&gt;[Solenoid Out]&amp;nbsp; &amp;nbsp; &amp;nbsp; &amp;nbsp; &amp;nbsp; &amp;nbsp; [Juiced]&lt;/font&gt;" style="text;html=1;strokeColor=none;fillColor=none;align=center;verticalAlign=middle;whiteSpace=wrap;rounded=0;sketch=0;fontColor=#095C86;shadow=1;" parent="153" vertex="1">
                    <mxGeometry x="-33" y="151" width="210" height="20" as="geometry"/>
                </mxCell>
                <mxCell id="37" value="No Crank" style="rounded=1;whiteSpace=wrap;html=1;sketch=0;fontColor=#095C86;strokeColor=#AF45ED;fillColor=#F694C1;shadow=1;" parent="153" vertex="1">
                    <mxGeometry x="-31" y="194" width="125" height="40" as="geometry"/>
                </mxCell>
                <mxCell id="30" style="edgeStyle=orthogonalEdgeStyle;curved=0;rounded=1;sketch=0;orthogonalLoop=1;jettySize=auto;html=1;exitX=0;exitY=1;exitDx=0;exitDy=0;entryX=0.5;entryY=0;entryDx=0;entryDy=0;fontColor=#095C86;strokeColor=#60E696;fillColor=#F694C1;endArrow=open;endFill=0;shadow=1;" parent="153" target="37" edge="1">
                    <mxGeometry relative="1" as="geometry">
                        <Array as="points">
                            <mxPoint x="78.5" y="174"/>
                            <mxPoint x="31.5" y="174"/>
                        </Array>
                        <mxPoint x="79" y="151.5" as="sourcePoint"/>
                    </mxGeometry>
                </mxCell>
                <mxCell id="39" value="Crank" style="rounded=1;whiteSpace=wrap;html=1;sketch=0;fontColor=#095C86;strokeColor=#AF45ED;fillColor=#F694C1;shadow=1;" parent="153" vertex="1">
                    <mxGeometry x="105" y="194" width="125" height="40" as="geometry"/>
                </mxCell>
                <mxCell id="29" style="edgeStyle=orthogonalEdgeStyle;curved=0;rounded=1;sketch=0;orthogonalLoop=1;jettySize=auto;html=1;exitX=1;exitY=1;exitDx=0;exitDy=0;entryX=0.5;entryY=0;entryDx=0;entryDy=0;fontColor=#095C86;strokeColor=#60E696;fillColor=#F694C1;endArrow=open;endFill=0;shadow=1;" parent="153" target="39" edge="1">
                    <mxGeometry relative="1" as="geometry">
                        <Array as="points">
                            <mxPoint x="104.5" y="174"/>
                            <mxPoint x="167.5" y="174"/>
                        </Array>
                        <mxPoint x="104" y="151.5" as="sourcePoint"/>
                    </mxGeometry>
                </mxCell>
                <mxCell id="168" style="edgeStyle=orthogonalEdgeStyle;curved=0;rounded=1;sketch=0;orthogonalLoop=1;jettySize=auto;html=1;exitX=0.5;exitY=1;exitDx=0;exitDy=0;entryX=1;entryY=0;entryDx=0;entryDy=0;fontColor=#095C86;strokeColor=#60E696;fillColor=#F694C1;endArrow=open;endFill=0;shadow=1;" parent="153" source="57" target="59" edge="1">
                    <mxGeometry relative="1" as="geometry">
                        <Array as="points">
                            <mxPoint x="168" y="337"/>
                            <mxPoint x="154" y="337"/>
                        </Array>
                    </mxGeometry>
                </mxCell>
                <mxCell id="57" value="" style="rhombus;whiteSpace=wrap;html=1;rounded=0;sketch=0;fontColor=#095C86;strokeColor=#AF45ED;fillColor=#F694C1;shadow=1;" parent="153" vertex="1">
                    <mxGeometry x="142.5" y="277" width="50" height="50" as="geometry"/>
                </mxCell>
                <mxCell id="36" style="edgeStyle=orthogonalEdgeStyle;curved=0;rounded=1;sketch=0;orthogonalLoop=1;jettySize=auto;html=1;exitX=0.5;exitY=1;exitDx=0;exitDy=0;entryX=0;entryY=0;entryDx=0;entryDy=0;fontColor=#095C86;strokeColor=#60E696;fillColor=#F694C1;endArrow=open;endFill=0;shadow=1;" parent="153" source="37" target="57" edge="1">
                    <mxGeometry relative="1" as="geometry"/>
                </mxCell>
                <mxCell id="38" style="edgeStyle=orthogonalEdgeStyle;curved=0;rounded=1;sketch=0;orthogonalLoop=1;jettySize=auto;html=1;exitX=0.5;exitY=1;exitDx=0;exitDy=0;entryX=1;entryY=0;entryDx=0;entryDy=0;fontColor=#095C86;strokeColor=#60E696;fillColor=#F694C1;endArrow=open;endFill=0;shadow=1;" parent="153" source="39" target="57" edge="1">
                    <mxGeometry relative="1" as="geometry"/>
                </mxCell>
                <mxCell id="169" style="edgeStyle=orthogonalEdgeStyle;curved=0;rounded=1;sketch=0;orthogonalLoop=1;jettySize=auto;html=1;exitX=0.5;exitY=1;exitDx=0;exitDy=0;entryX=0;entryY=0;entryDx=0;entryDy=0;fontColor=#095C86;strokeColor=#60E696;fillColor=#F694C1;endArrow=open;endFill=0;shadow=1;" parent="153" source="34" target="59" edge="1">
                    <mxGeometry relative="1" as="geometry">
                        <Array as="points">
                            <mxPoint x="72" y="337"/>
                            <mxPoint x="129" y="337"/>
                        </Array>
                    </mxGeometry>
                </mxCell>
                <mxCell id="34" value="No Crank" style="rounded=1;whiteSpace=wrap;html=1;sketch=0;fontColor=#095C86;strokeColor=#AF45ED;fillColor=#F694C1;shadow=1;" parent="153" vertex="1">
                    <mxGeometry x="9.5" y="282" width="125" height="40" as="geometry"/>
                </mxCell>
                <mxCell id="59" value="" style="rhombus;whiteSpace=wrap;html=1;rounded=0;sketch=0;fontColor=#095C86;strokeColor=#AF45ED;fillColor=#F694C1;shadow=1;" parent="153" vertex="1">
                    <mxGeometry x="116.5" y="337" width="50" height="50" as="geometry"/>
                </mxCell>
                <mxCell id="156" value="User" style="swimlane;fillColor=#F694C1;strokeColor=#AF45ED;fontColor=#095C86;shadow=1;" parent="1" vertex="1">
                    <mxGeometry x="289.75" y="41" width="270" height="1117" as="geometry"/>
                </mxCell>
                <mxCell id="158" style="edgeStyle=orthogonalEdgeStyle;curved=0;rounded=1;sketch=0;orthogonalLoop=1;jettySize=auto;html=1;exitX=0;exitY=1;exitDx=0;exitDy=0;entryX=1;entryY=0.5;entryDx=0;entryDy=0;fontColor=#095C86;strokeColor=#60E696;fillColor=#F694C1;endArrow=open;endFill=0;shadow=1;" parent="156" source="3" target="12" edge="1">
                    <mxGeometry relative="1" as="geometry">
                        <Array as="points">
                            <mxPoint x="186" y="67"/>
                        </Array>
                    </mxGeometry>
                </mxCell>
                <mxCell id="3" value="" style="ellipse;whiteSpace=wrap;html=1;aspect=fixed;rounded=0;sketch=0;fontColor=#095C86;strokeColor=#AF45ED;fillColor=#F694C1;shadow=1;" parent="156" vertex="1">
                    <mxGeometry x="180" y="27" width="40" height="40" as="geometry"/>
                </mxCell>
                <mxCell id="157" style="edgeStyle=orthogonalEdgeStyle;curved=0;rounded=1;sketch=0;orthogonalLoop=1;jettySize=auto;html=1;exitX=0.5;exitY=1;exitDx=0;exitDy=0;entryX=0.5;entryY=0;entryDx=0;entryDy=0;fontColor=#095C86;strokeColor=#60E696;fillColor=#F694C1;endArrow=open;endFill=0;shadow=1;" parent="156" source="12" target="8" edge="1">
                    <mxGeometry relative="1" as="geometry">
                        <Array as="points">
                            <mxPoint x="89" y="97"/>
                            <mxPoint x="105" y="97"/>
                        </Array>
                    </mxGeometry>
                </mxCell>
                <mxCell id="12" value="Turn Key/ Push Button" style="rounded=1;whiteSpace=wrap;html=1;sketch=0;fontColor=#095C86;strokeColor=#AF45ED;fillColor=#F694C1;shadow=1;" parent="156" vertex="1">
                    <mxGeometry x="26.25" y="47" width="125" height="40" as="geometry"/>
                </mxCell>
                <mxCell id="21" value="&lt;font color=&quot;#ff99cc&quot; style=&quot;font-size: 14px&quot;&gt;[Juiced]&amp;nbsp; &amp;nbsp; &amp;nbsp; &amp;nbsp; &amp;nbsp; &amp;nbsp; &amp;nbsp; &amp;nbsp; &amp;nbsp; [Battery Dead]&lt;/font&gt;" style="text;html=1;strokeColor=none;fillColor=none;align=center;verticalAlign=middle;whiteSpace=wrap;rounded=0;sketch=0;fontColor=#095C86;shadow=1;" parent="156" vertex="1">
                    <mxGeometry x="-7" y="126" width="260" height="20" as="geometry"/>
                </mxCell>
                <mxCell id="199" style="edgeStyle=orthogonalEdgeStyle;curved=0;rounded=1;sketch=0;orthogonalLoop=1;jettySize=auto;html=1;exitX=1;exitY=1;exitDx=0;exitDy=0;entryX=0;entryY=0;entryDx=0;entryDy=0;fontColor=#095C86;strokeColor=#60E696;fillColor=#F694C1;endArrow=open;endFill=0;shadow=1;" parent="156" source="8" target="65" edge="1">
                    <mxGeometry relative="1" as="geometry"/>
                </mxCell>
                <mxCell id="8" value="" style="rhombus;whiteSpace=wrap;html=1;rounded=0;sketch=0;fontColor=#095C86;strokeColor=#AF45ED;fillColor=#F694C1;shadow=1;" parent="156" vertex="1">
                    <mxGeometry x="80" y="111" width="50" height="50" as="geometry"/>
                </mxCell>
                <mxCell id="202" style="edgeStyle=orthogonalEdgeStyle;curved=0;rounded=1;sketch=0;orthogonalLoop=1;jettySize=auto;html=1;exitX=0.5;exitY=1;exitDx=0;exitDy=0;entryX=0.5;entryY=0;entryDx=0;entryDy=0;fontColor=#095C86;strokeColor=#60E696;fillColor=#F694C1;endArrow=open;endFill=0;shadow=1;" parent="156" source="65" target="68" edge="1">
                    <mxGeometry relative="1" as="geometry"/>
                </mxCell>
                <mxCell id="65" value="" style="rhombus;whiteSpace=wrap;html=1;rounded=0;sketch=0;fontColor=#095C86;strokeColor=#AF45ED;fillColor=#F694C1;shadow=1;" parent="156" vertex="1">
                    <mxGeometry x="105" y="757" width="50" height="50" as="geometry"/>
                </mxCell>
                <mxCell id="4" value="" style="ellipse;whiteSpace=wrap;html=1;aspect=fixed;rounded=1;sketch=0;fontColor=#095C86;fillColor=none;strokeWidth=4;strokeColor=#AF45ED;shadow=1;" parent="156" vertex="1">
                    <mxGeometry x="10" y="1032" width="50" height="50" as="geometry"/>
                </mxCell>
                <mxCell id="5" value="" style="ellipse;whiteSpace=wrap;html=1;aspect=fixed;rounded=0;sketch=0;fontColor=#095C86;strokeColor=#AF45ED;fillColor=#F694C1;shadow=1;" parent="156" vertex="1">
                    <mxGeometry x="21" y="1043" width="28" height="28" as="geometry"/>
                </mxCell>
                <mxCell id="68" value="" style="rhombus;whiteSpace=wrap;html=1;rounded=0;sketch=0;fontColor=#095C86;strokeColor=#AF45ED;fillColor=#F694C1;shadow=1;" parent="156" vertex="1">
                    <mxGeometry x="104.5" y="827" width="50" height="50" as="geometry"/>
                </mxCell>
                <mxCell id="69" value="&lt;font color=&quot;#ff99cc&quot; style=&quot;font-size: 14px&quot;&gt;[No Start]&amp;nbsp; &amp;nbsp; &amp;nbsp; &amp;nbsp; &amp;nbsp; &amp;nbsp; &amp;nbsp; &amp;nbsp; [Running]&lt;/font&gt;" style="text;html=1;strokeColor=none;fillColor=none;align=center;verticalAlign=middle;whiteSpace=wrap;rounded=0;sketch=0;fontColor=#095C86;shadow=1;" parent="156" vertex="1">
                    <mxGeometry x="24.5" y="872" width="210" height="20" as="geometry"/>
                </mxCell>
                <mxCell id="71" value="Drive" style="rounded=1;whiteSpace=wrap;html=1;sketch=0;fontColor=#095C86;strokeColor=#AF45ED;fillColor=#F694C1;shadow=1;" parent="156" vertex="1">
                    <mxGeometry x="140" y="917" width="125" height="40" as="geometry"/>
                </mxCell>
                <mxCell id="66" style="edgeStyle=orthogonalEdgeStyle;curved=0;rounded=1;sketch=0;orthogonalLoop=1;jettySize=auto;html=1;exitX=1;exitY=1;exitDx=0;exitDy=0;entryX=0.5;entryY=0;entryDx=0;entryDy=0;fontColor=#095C86;strokeColor=#60E696;fillColor=#F694C1;endArrow=open;endFill=0;shadow=1;" parent="156" source="68" target="71" edge="1">
                    <mxGeometry relative="1" as="geometry"/>
                </mxCell>
                <mxCell id="73" value="Troubleshoot" style="rounded=1;whiteSpace=wrap;html=1;sketch=0;fontColor=#095C86;strokeColor=#AF45ED;fillColor=#F694C1;shadow=1;" parent="156" vertex="1">
                    <mxGeometry x="-7.5" y="917" width="125" height="40" as="geometry"/>
                </mxCell>
                <mxCell id="67" style="edgeStyle=orthogonalEdgeStyle;curved=0;rounded=1;sketch=0;orthogonalLoop=1;jettySize=auto;html=1;exitX=0;exitY=1;exitDx=0;exitDy=0;entryX=0.5;entryY=0;entryDx=0;entryDy=0;fontColor=#095C86;strokeColor=#60E696;fillColor=#F694C1;endArrow=open;endFill=0;shadow=1;" parent="156" source="68" target="73" edge="1">
                    <mxGeometry relative="1" as="geometry"/>
                </mxCell>
                <mxCell id="75" value="Turn Key/ Push Button" style="rounded=1;whiteSpace=wrap;html=1;sketch=0;fontColor=#095C86;strokeColor=#AF45ED;fillColor=#F694C1;shadow=1;" parent="156" vertex="1">
                    <mxGeometry x="140" y="977" width="125" height="40" as="geometry"/>
                </mxCell>
                <mxCell id="70" style="edgeStyle=orthogonalEdgeStyle;curved=0;rounded=1;sketch=0;orthogonalLoop=1;jettySize=auto;html=1;exitX=0.5;exitY=1;exitDx=0;exitDy=0;entryX=0.5;entryY=0;entryDx=0;entryDy=0;fontColor=#095C86;strokeColor=#60E696;fillColor=#F694C1;endArrow=open;endFill=0;shadow=1;" parent="156" source="71" target="75" edge="1">
                    <mxGeometry relative="1" as="geometry"/>
                </mxCell>
                <mxCell id="78" style="edgeStyle=orthogonalEdgeStyle;curved=0;rounded=1;sketch=0;orthogonalLoop=1;jettySize=auto;html=1;exitX=0;exitY=0.5;exitDx=0;exitDy=0;entryX=1;entryY=0.5;entryDx=0;entryDy=0;fontColor=#095C86;strokeColor=#60E696;fillColor=#F694C1;endArrow=open;endFill=0;shadow=1;" parent="156" source="79" target="5" edge="1">
                    <mxGeometry relative="1" as="geometry"/>
                </mxCell>
                <mxCell id="79" value="" style="rhombus;whiteSpace=wrap;html=1;rounded=0;sketch=0;fontColor=#095C86;strokeColor=#AF45ED;fillColor=#F694C1;shadow=1;" parent="156" vertex="1">
                    <mxGeometry x="80" y="1032" width="50" height="50" as="geometry"/>
                </mxCell>
                <mxCell id="72" style="edgeStyle=orthogonalEdgeStyle;curved=0;rounded=1;sketch=0;orthogonalLoop=1;jettySize=auto;html=1;exitX=0.5;exitY=1;exitDx=0;exitDy=0;fontColor=#095C86;strokeColor=#60E696;fillColor=#F694C1;endArrow=open;endFill=0;shadow=1;" parent="156" source="73" target="79" edge="1">
                    <mxGeometry relative="1" as="geometry"/>
                </mxCell>
                <mxCell id="162" style="edgeStyle=orthogonalEdgeStyle;curved=0;rounded=1;sketch=0;orthogonalLoop=1;jettySize=auto;html=1;exitX=0;exitY=0.5;exitDx=0;exitDy=0;entryX=1;entryY=0.5;entryDx=0;entryDy=0;fontColor=#095C86;strokeColor=#60E696;fillColor=#F694C1;endArrow=open;endFill=0;shadow=1;" parent="1" source="20" target="14" edge="1">
                    <mxGeometry relative="1" as="geometry">
                        <Array as="points">
                            <mxPoint x="570" y="168"/>
                            <mxPoint x="570" y="258"/>
                        </Array>
                    </mxGeometry>
                </mxCell>
                <mxCell id="164" style="edgeStyle=orthogonalEdgeStyle;curved=0;rounded=1;sketch=0;orthogonalLoop=1;jettySize=auto;html=1;exitX=0;exitY=1;exitDx=0;exitDy=0;entryX=0;entryY=0.5;entryDx=0;entryDy=0;fontColor=#095C86;strokeColor=#60E696;fillColor=#F694C1;endArrow=open;endFill=0;shadow=1;" parent="1" source="8" target="16" edge="1">
                    <mxGeometry relative="1" as="geometry">
                        <Array as="points">
                            <mxPoint x="382" y="220"/>
                            <mxPoint x="530" y="220"/>
                            <mxPoint x="530" y="108"/>
                        </Array>
                    </mxGeometry>
                </mxCell>
                <mxCell id="165" style="edgeStyle=orthogonalEdgeStyle;curved=0;rounded=1;sketch=0;orthogonalLoop=1;jettySize=auto;html=1;exitX=1;exitY=1;exitDx=0;exitDy=0;entryX=0.5;entryY=0;entryDx=0;entryDy=0;fontColor=#095C86;strokeColor=#60E696;fillColor=#F694C1;endArrow=open;endFill=0;shadow=1;" parent="1" source="28" target="31" edge="1">
                    <mxGeometry relative="1" as="geometry">
                        <Array as="points">
                            <mxPoint x="200" y="360"/>
                            <mxPoint x="710" y="360"/>
                            <mxPoint x="710" y="188"/>
                            <mxPoint x="760" y="188"/>
                            <mxPoint x="760" y="140"/>
                            <mxPoint x="851" y="140"/>
                        </Array>
                    </mxGeometry>
                </mxCell>
                <mxCell id="167" style="edgeStyle=orthogonalEdgeStyle;curved=0;rounded=1;sketch=0;orthogonalLoop=1;jettySize=auto;html=1;exitX=0;exitY=1;exitDx=0;exitDy=0;entryX=0;entryY=0.5;entryDx=0;entryDy=0;fontColor=#095C86;strokeColor=#60E696;fillColor=#F694C1;endArrow=open;endFill=0;shadow=1;" parent="1" source="28" target="34" edge="1">
                    <mxGeometry relative="1" as="geometry">
                        <Array as="points">
                            <mxPoint x="175" y="360"/>
                            <mxPoint x="174" y="360"/>
                            <mxPoint x="174" y="370"/>
                            <mxPoint x="720" y="370"/>
                            <mxPoint x="720" y="343"/>
                        </Array>
                    </mxGeometry>
                </mxCell>
                <mxCell id="170" value="Fuel Pump" style="swimlane;fillColor=#F694C1;strokeColor=#AF45ED;fontColor=#095C86;startSize=23;shadow=1;" parent="1" vertex="1">
                    <mxGeometry x="989.75" y="41" width="250" height="1117" as="geometry"/>
                </mxCell>
                <mxCell id="42" value="" style="rhombus;whiteSpace=wrap;html=1;rounded=0;sketch=0;fontColor=#095C86;strokeColor=#AF45ED;fillColor=#F694C1;shadow=1;" parent="170" vertex="1">
                    <mxGeometry x="103.5" y="267" width="50" height="50" as="geometry"/>
                </mxCell>
                <mxCell id="43" value="&lt;font color=&quot;#ff99cc&quot; style=&quot;font-size: 14px&quot;&gt;[Short/ No Fuel]&amp;nbsp; &amp;nbsp; &amp;nbsp; &amp;nbsp; &amp;nbsp; &amp;nbsp;[Juiced]&lt;/font&gt;" style="text;html=1;strokeColor=none;fillColor=none;align=center;verticalAlign=middle;whiteSpace=wrap;rounded=0;sketch=0;fontColor=#095C86;shadow=1;" parent="170" vertex="1">
                    <mxGeometry x="-10" y="330" width="230" height="20" as="geometry"/>
                </mxCell>
                <mxCell id="45" value="No Fuel Delivered To Injectors" style="rounded=1;whiteSpace=wrap;html=1;sketch=0;fontColor=#095C86;strokeColor=#AF45ED;fillColor=#F694C1;shadow=1;" parent="170" vertex="1">
                    <mxGeometry x="-6.5" y="392" width="125" height="40" as="geometry"/>
                </mxCell>
                <mxCell id="40" style="edgeStyle=orthogonalEdgeStyle;curved=0;rounded=1;sketch=0;orthogonalLoop=1;jettySize=auto;html=1;exitX=0;exitY=1;exitDx=0;exitDy=0;fontColor=#095C86;strokeColor=#60E696;fillColor=#F694C1;endArrow=open;endFill=0;shadow=1;" parent="170" source="42" target="45" edge="1">
                    <mxGeometry relative="1" as="geometry"/>
                </mxCell>
                <mxCell id="47" value="Fuel Delivered To Injectors" style="rounded=1;whiteSpace=wrap;html=1;sketch=0;fontColor=#095C86;strokeColor=#AF45ED;fillColor=#F694C1;shadow=1;" parent="170" vertex="1">
                    <mxGeometry x="140" y="392" width="125" height="40" as="geometry"/>
                </mxCell>
                <mxCell id="41" style="edgeStyle=orthogonalEdgeStyle;curved=0;rounded=1;sketch=0;orthogonalLoop=1;jettySize=auto;html=1;exitX=1;exitY=1;exitDx=0;exitDy=0;entryX=0.5;entryY=0;entryDx=0;entryDy=0;fontColor=#095C86;strokeColor=#60E696;fillColor=#F694C1;endArrow=open;endFill=0;shadow=1;" parent="170" source="42" target="47" edge="1">
                    <mxGeometry relative="1" as="geometry"/>
                </mxCell>
                <mxCell id="61" value="" style="rhombus;whiteSpace=wrap;html=1;rounded=0;sketch=0;fontColor=#095C86;strokeColor=#AF45ED;fillColor=#F694C1;shadow=1;" parent="170" vertex="1">
                    <mxGeometry x="105.5" y="522" width="50" height="50" as="geometry"/>
                </mxCell>
                <mxCell id="44" style="edgeStyle=orthogonalEdgeStyle;curved=0;rounded=1;sketch=0;orthogonalLoop=1;jettySize=auto;html=1;exitX=0.5;exitY=1;exitDx=0;exitDy=0;entryX=0;entryY=0;entryDx=0;entryDy=0;fontColor=#095C86;strokeColor=#60E696;fillColor=#F694C1;endArrow=open;endFill=0;shadow=1;" parent="170" source="45" target="61" edge="1">
                    <mxGeometry relative="1" as="geometry"/>
                </mxCell>
                <mxCell id="46" style="edgeStyle=orthogonalEdgeStyle;curved=0;rounded=1;sketch=0;orthogonalLoop=1;jettySize=auto;html=1;exitX=0.5;exitY=1;exitDx=0;exitDy=0;entryX=1;entryY=0;entryDx=0;entryDy=0;fontColor=#095C86;strokeColor=#60E696;fillColor=#F694C1;endArrow=open;endFill=0;shadow=1;" parent="170" source="47" target="61" edge="1">
                    <mxGeometry relative="1" as="geometry"/>
                </mxCell>
                <mxCell id="22" style="edgeStyle=orthogonalEdgeStyle;curved=0;rounded=1;sketch=0;orthogonalLoop=1;jettySize=auto;html=1;exitX=0.5;exitY=1;exitDx=0;exitDy=0;entryX=0.5;entryY=0;entryDx=0;entryDy=0;fontColor=#095C86;strokeColor=#60E696;fillColor=#F694C1;endArrow=open;endFill=0;shadow=1;" parent="1" source="23" target="42" edge="1">
                    <mxGeometry relative="1" as="geometry">
                        <Array as="points">
                            <mxPoint x="186.75" y="478"/>
                            <mxPoint x="969.75" y="478"/>
                            <mxPoint x="969.75" y="288"/>
                            <mxPoint x="1118.75" y="288"/>
                        </Array>
                    </mxGeometry>
                </mxCell>
                <mxCell id="184" style="edgeStyle=orthogonalEdgeStyle;curved=0;rounded=1;sketch=0;orthogonalLoop=1;jettySize=auto;html=1;exitX=0.25;exitY=1;exitDx=0;exitDy=0;entryX=0.5;entryY=0;entryDx=0;entryDy=0;fontColor=#095C86;strokeColor=#60E696;fillColor=#F694C1;endArrow=open;endFill=0;shadow=1;" parent="1" source="20" target="23" edge="1">
                    <mxGeometry relative="1" as="geometry">
                        <Array as="points">
                            <mxPoint x="621" y="190"/>
                            <mxPoint x="580" y="190"/>
                            <mxPoint x="580" y="398"/>
                            <mxPoint x="187" y="398"/>
                        </Array>
                    </mxGeometry>
                </mxCell>
                <mxCell id="185" value="Injector Drive Module" style="swimlane;fillColor=#F694C1;strokeColor=#AF45ED;fontColor=#095C86;startSize=23;shadow=1;" parent="1" vertex="1">
                    <mxGeometry x="1239.75" y="41" width="273.5" height="1117" as="geometry"/>
                </mxCell>
                <mxCell id="50" value="" style="rhombus;whiteSpace=wrap;html=1;rounded=0;sketch=0;fontColor=#095C86;strokeColor=#AF45ED;fillColor=#F694C1;shadow=1;" parent="185" vertex="1">
                    <mxGeometry x="104" y="482" width="50" height="50" as="geometry"/>
                </mxCell>
                <mxCell id="51" value="&lt;font color=&quot;#ff99cc&quot; style=&quot;font-size: 14px&quot;&gt;[Short]&amp;nbsp; &amp;nbsp; &amp;nbsp; &amp;nbsp; &amp;nbsp; &amp;nbsp; &amp;nbsp; &amp;nbsp; [Juiced]&lt;/font&gt;" style="text;html=1;strokeColor=none;fillColor=none;align=center;verticalAlign=middle;whiteSpace=wrap;rounded=0;sketch=0;fontColor=#095C86;shadow=1;" parent="185" vertex="1">
                    <mxGeometry x="24" y="546" width="210" height="20" as="geometry"/>
                </mxCell>
                <mxCell id="53" value="No Fuel Delivered To Cylinder" style="rounded=1;whiteSpace=wrap;html=1;sketch=0;fontColor=#095C86;strokeColor=#AF45ED;fillColor=#F694C1;shadow=1;" parent="185" vertex="1">
                    <mxGeometry x="-10.5" y="607" width="125" height="40" as="geometry"/>
                </mxCell>
                <mxCell id="48" style="edgeStyle=orthogonalEdgeStyle;curved=0;rounded=1;sketch=0;orthogonalLoop=1;jettySize=auto;html=1;exitX=0;exitY=1;exitDx=0;exitDy=0;fontColor=#095C86;strokeColor=#60E696;fillColor=#F694C1;endArrow=open;endFill=0;shadow=1;" parent="185" source="50" target="53" edge="1">
                    <mxGeometry relative="1" as="geometry"/>
                </mxCell>
                <mxCell id="55" value="Fuel Delivered To Cylinder" style="rounded=1;whiteSpace=wrap;html=1;sketch=0;fontColor=#095C86;strokeColor=#AF45ED;fillColor=#F694C1;shadow=1;" parent="185" vertex="1">
                    <mxGeometry x="148.5" y="607" width="125" height="40" as="geometry"/>
                </mxCell>
                <mxCell id="49" style="edgeStyle=orthogonalEdgeStyle;curved=0;rounded=1;sketch=0;orthogonalLoop=1;jettySize=auto;html=1;exitX=1;exitY=1;exitDx=0;exitDy=0;fontColor=#095C86;strokeColor=#60E696;fillColor=#F694C1;endArrow=open;endFill=0;shadow=1;" parent="185" source="50" target="55" edge="1">
                    <mxGeometry relative="1" as="geometry"/>
                </mxCell>
                <mxCell id="63" value="" style="rhombus;whiteSpace=wrap;html=1;rounded=0;sketch=0;fontColor=#095C86;strokeColor=#AF45ED;fillColor=#F694C1;shadow=1;" parent="185" vertex="1">
                    <mxGeometry x="104" y="737" width="50" height="50" as="geometry"/>
                </mxCell>
                <mxCell id="52" style="edgeStyle=orthogonalEdgeStyle;curved=0;rounded=1;sketch=0;orthogonalLoop=1;jettySize=auto;html=1;exitX=0.5;exitY=1;exitDx=0;exitDy=0;entryX=0;entryY=0;entryDx=0;entryDy=0;fontColor=#095C86;strokeColor=#60E696;fillColor=#F694C1;endArrow=open;endFill=0;shadow=1;" parent="185" source="53" target="63" edge="1">
                    <mxGeometry relative="1" as="geometry"/>
                </mxCell>
                <mxCell id="54" style="edgeStyle=orthogonalEdgeStyle;curved=0;rounded=1;sketch=0;orthogonalLoop=1;jettySize=auto;html=1;exitX=0.5;exitY=1;exitDx=0;exitDy=0;entryX=1;entryY=0;entryDx=0;entryDy=0;fontColor=#095C86;strokeColor=#60E696;fillColor=#F694C1;endArrow=open;endFill=0;shadow=1;" parent="185" source="55" target="63" edge="1">
                    <mxGeometry relative="1" as="geometry"/>
                </mxCell>
                <mxCell id="24" style="edgeStyle=orthogonalEdgeStyle;curved=0;rounded=1;sketch=0;orthogonalLoop=1;jettySize=auto;html=1;exitX=0.5;exitY=1;exitDx=0;exitDy=0;entryX=0.5;entryY=0;entryDx=0;entryDy=0;fontColor=#095C86;strokeColor=#60E696;fillColor=#F694C1;endArrow=open;endFill=0;shadow=1;" parent="1" source="25" target="50" edge="1">
                    <mxGeometry relative="1" as="geometry">
                        <Array as="points">
                            <mxPoint x="186.75" y="628"/>
                            <mxPoint x="1219.75" y="628"/>
                            <mxPoint x="1219.75" y="498"/>
                            <mxPoint x="1368.75" y="498"/>
                        </Array>
                    </mxGeometry>
                </mxCell>
                <mxCell id="195" style="edgeStyle=orthogonalEdgeStyle;curved=0;rounded=1;sketch=0;orthogonalLoop=1;jettySize=auto;html=1;exitX=0.5;exitY=1;exitDx=0;exitDy=0;fontColor=#095C86;strokeColor=#60E696;fillColor=#F694C1;endArrow=open;endFill=0;shadow=1;" parent="1" source="59" edge="1">
                    <mxGeometry relative="1" as="geometry">
                        <mxPoint x="670" y="808" as="targetPoint"/>
                        <Array as="points">
                            <mxPoint x="901" y="710"/>
                            <mxPoint x="670" y="710"/>
                        </Array>
                    </mxGeometry>
                </mxCell>
                <mxCell id="196" style="edgeStyle=orthogonalEdgeStyle;curved=0;rounded=1;sketch=0;orthogonalLoop=1;jettySize=auto;html=1;exitX=0.5;exitY=1;exitDx=0;exitDy=0;entryX=0.5;entryY=0;entryDx=0;entryDy=0;fontColor=#095C86;strokeColor=#60E696;fillColor=#F694C1;endArrow=open;endFill=0;shadow=1;" parent="1" source="61" target="10" edge="1">
                    <mxGeometry relative="1" as="geometry">
                        <Array as="points">
                            <mxPoint x="1120" y="720"/>
                            <mxPoint x="680" y="720"/>
                        </Array>
                    </mxGeometry>
                </mxCell>
                <mxCell id="197" style="edgeStyle=orthogonalEdgeStyle;curved=0;rounded=1;sketch=0;orthogonalLoop=1;jettySize=auto;html=1;exitX=0.5;exitY=1;exitDx=0;exitDy=0;fontColor=#095C86;strokeColor=#60E696;fillColor=#F694C1;entryX=0.583;entryY=-0.009;entryDx=0;entryDy=0;entryPerimeter=0;endArrow=open;endFill=0;shadow=1;" parent="1" source="63" target="10" edge="1">
                    <mxGeometry relative="1" as="geometry">
                        <mxPoint x="690" y="803" as="targetPoint"/>
                        <Array as="points">
                            <mxPoint x="1369" y="848"/>
                            <mxPoint x="1210" y="848"/>
                            <mxPoint x="1210" y="730"/>
                            <mxPoint x="690" y="730"/>
                        </Array>
                    </mxGeometry>
                </mxCell>
                <mxCell id="200" style="edgeStyle=orthogonalEdgeStyle;curved=0;rounded=1;sketch=0;orthogonalLoop=1;jettySize=auto;html=1;exitX=0.5;exitY=1;exitDx=0;exitDy=0;entryX=1;entryY=0;entryDx=0;entryDy=0;fontColor=#095C86;strokeColor=#60E696;fillColor=#F694C1;endArrow=open;endFill=0;shadow=1;" parent="1" source="10" target="65" edge="1">
                    <mxGeometry relative="1" as="geometry">
                        <Array as="points">
                            <mxPoint x="679.75" y="848"/>
                            <mxPoint x="510.75" y="848"/>
                            <mxPoint x="510.75" y="768"/>
                            <mxPoint x="432.75" y="768"/>
                        </Array>
                    </mxGeometry>
                </mxCell>
                <mxCell id="201" style="edgeStyle=orthogonalEdgeStyle;curved=0;rounded=1;sketch=0;orthogonalLoop=1;jettySize=auto;html=1;exitX=0.5;exitY=1;exitDx=0;exitDy=0;entryX=0.5;entryY=0;entryDx=0;entryDy=0;fontColor=#095C86;strokeColor=#60E696;fillColor=#F694C1;endArrow=open;endFill=0;shadow=1;" parent="1" source="20" target="25" edge="1">
                    <mxGeometry relative="1" as="geometry">
                        <Array as="points">
                            <mxPoint x="653" y="210"/>
                            <mxPoint x="590" y="210"/>
                            <mxPoint x="590" y="518"/>
                            <mxPoint x="187" y="518"/>
                        </Array>
                    </mxGeometry>
                </mxCell>
                <mxCell id="76" style="edgeStyle=orthogonalEdgeStyle;curved=0;rounded=1;sketch=0;orthogonalLoop=1;jettySize=auto;html=1;exitX=0;exitY=0.5;exitDx=0;exitDy=0;entryX=1;entryY=0.5;entryDx=0;entryDy=0;fontColor=#095C86;strokeColor=#60E696;fillColor=#F694C1;endArrow=open;endFill=0;shadow=1;" parent="1" source="77" target="79" edge="1">
                    <mxGeometry relative="1" as="geometry"/>
                </mxCell>
                <mxCell id="203" style="edgeStyle=orthogonalEdgeStyle;curved=0;rounded=1;sketch=0;orthogonalLoop=1;jettySize=auto;html=1;exitX=1;exitY=0.5;exitDx=0;exitDy=0;entryX=0.5;entryY=0;entryDx=0;entryDy=0;fontColor=#095C86;strokeColor=#60E696;fillColor=#F694C1;endArrow=open;endFill=0;shadow=1;" parent="1" source="75" target="77" edge="1">
                    <mxGeometry relative="1" as="geometry"/>
                </mxCell>
            </root>
        </mxGraphModel>
    </diagram>
</mxfile>